<?xml version="1.0" encoding="UTF-8" standalone="no"?>
<!-- Generator: Adobe Illustrator 26.2.1, SVG Export Plug-In . SVG Version: 6.00 Build 0)  -->

<svg
   version="1.1"
   id="Réteg_1"
   x="0px"
   y="0px"
   viewBox="0 0 1080 1080"
   style="enable-background:new 0 0 1080 1080;"
   xml:space="preserve"
   sodipodi:docname="logo_white.svg"
   inkscape:version="1.1.1 (3bf5ae0d25, 2021-09-20)"
   xmlns:inkscape="http://www.inkscape.org/namespaces/inkscape"
   xmlns:sodipodi="http://sodipodi.sourceforge.net/DTD/sodipodi-0.dtd"
   xmlns="http://www.w3.org/2000/svg"
   xmlns:svg="http://www.w3.org/2000/svg"><defs
   id="defs47" /><sodipodi:namedview
   id="namedview45"
   pagecolor="#ffffff"
   bordercolor="#666666"
   borderopacity="1.0"
   inkscape:pageshadow="2"
   inkscape:pageopacity="0.0"
   inkscape:pagecheckerboard="0"
   showgrid="false"
   inkscape:zoom="0.80833333"
   inkscape:cx="540"
   inkscape:cy="540"
   inkscape:window-width="2560"
   inkscape:window-height="1376"
   inkscape:window-x="0"
   inkscape:window-y="0"
   inkscape:window-maximized="1"
   inkscape:current-layer="Réteg_1" />
<style
   type="text/css"
   id="style32">
	.st0{fill:#FFFFFF;}
	.st1{fill:none;stroke:#1DDDDD;stroke-width:45;stroke-linecap:round;stroke-miterlimit:10;}
	.st2{fill:none;stroke:#FFFFFF;stroke-width:45;stroke-linecap:round;stroke-miterlimit:10;}
</style>
<g
   id="g42"
   transform="matrix(1.2780286,0,0,1.2780286,-164.14943,-153.68032)">
	<circle
   class="st0"
   cx="785"
   cy="564.90002"
   r="60"
   id="circle34" />
	<path
   class="st1"
   d="m 917.1,301.4 2.7,102.1 c 0.8,30.7 0.3,31.2 -30.4,32.1 l -104.3,2.7"
   id="path36" />
	<path
   class="st2"
   d="m 801.9,542.4 c -39.8,136 -135.4,248.3 -260.4,310.2 h -0.1 C 375.1,770.2 260.8,598.7 260.8,400.6 c 0,-24.3 1.7,-48.5 5.2,-72.6 l 2,-1.4 c 77,-47.5 165.5,-73.7 262.6,-73.7 107.8,0 204.4,31.5 286.3,89.1"
   id="path38" />
	<path
   class="st1"
   d="M 662.1,390 C 623.4,371.5 580.5,361.6 534,361.6 c -57.6,0 -110.1,15.5 -155.8,43.7 l -1.2,0.8 c -2,14.3 -3.1,28.7 -3.1,43.1 0,117.6 67.8,219.3 166.5,268.2 43.4,-21.5 81,-53.3 109.6,-92.5"
   id="path40" />
</g>
</svg>
